<?xml version="1.0" standalone="no"?>
<!DOCTYPE svg PUBLIC "-//W3C//DTD SVG 1.1//EN" "http://www.w3.org/Graphics/SVG/1.1/DTD/svg11.dtd" >
<svg xmlns="http://www.w3.org/2000/svg" xmlns:xlink="http://www.w3.org/1999/xlink" version="1.1">
<metadata>
Created by FontForge 20170731 at Sat Aug 15 22:58:14 2020
 By Aleksey,,,
Copyright (c) 2020 by Fontastica. All rights reserved.
</metadata>
<defs>
<font id="Berlin-Regular" horiz-adv-x="1070" >
  <font-face 
    font-family="Berlin"
    font-weight="400"
    font-stretch="normal"
    units-per-em="2048"
    panose-1="0 0 5 0 0 0 0 0 0 0"
    ascent="1638"
    descent="-410"
    x-height="998"
    cap-height="1501"
    bbox="-1 -430 3906 1901"
    underline-thickness="50"
    underline-position="-150"
    unicode-range="U+0020-F8FF"
  />
<missing-glyph horiz-adv-x="1064" 
d="M80 11v1458h904v-1458h-904zM265 173h533v1134h-533v-1134zM405 525l-72 71l118 119l-118 118l72 71l117 -118l118 118l72 -71l-118 -118l118 -119l-72 -71l-118 118z" />
    <glyph glyph-name=".notdef" horiz-adv-x="1064" 
d="M80 11v1458h904v-1458h-904zM265 173h533v1134h-533v-1134zM405 525l-72 71l118 119l-118 118l72 71l117 -118l118 118l72 -71l-118 -118l118 -119l-72 -71l-118 118z" />
    <glyph glyph-name=".null" horiz-adv-x="0" 
 />
    <glyph glyph-name="nonmarkingreturn" horiz-adv-x="682" 
 />
    <glyph glyph-name="space" unicode=" " horiz-adv-x="700" 
 />
    <glyph glyph-name="exclam" unicode="!" horiz-adv-x="600" 
d="M294 416h-99l-58 945q-4 60 21.5 82.5t105.5 22.5q82 0 107 -22t19 -82zM250 0q-71 0 -110.5 32.5t-39.5 82.5t39 83t109 33q73 0 112.5 -33t39.5 -83t-39.5 -82.5t-110.5 -32.5z" />
    <glyph glyph-name="quotedbl" unicode="&#x22;" horiz-adv-x="800" 
d="M283 1501l-56 -403h-67l-56 398q-3 20 -3 25q0 22 19 45q19 21 72 21q54 0 72 -22q21 -24 21 -43q0 -10 -2 -21zM633 1500l-55 -402h-69l-54 401q-4 14 -4 22q0 22 19 44q16 22 73 22q53 0 71 -22q21 -24 21 -43q0 -10 -2 -22z" />
    <glyph glyph-name="numbersign" unicode="#" horiz-adv-x="1492" 
d="M1429 917h-301l-103 -339h323l-36 -130h-323l-136 -448h-182l135 448h-290l-137 -448h-182l135 448h-285l37 130h282l107 339h-310l36 129h308l135 453h183l-137 -453h292l138 453h182l-137 -453h302zM654 912l-106 -340h292l107 340h-293z" />
    <glyph glyph-name="dollar" unicode="$" horiz-adv-x="1413" 
d="M1065 132q-141 -109 -344 -127v-105h-86v104q-195 10 -314 59q-127 54 -221 138l166 163q111 -107 369 -133v434q-197 27 -342 111q-143 85 -143 295q0 190 167 307q141 98 318 119v103h86v-104q186 -10 277 -49q104 -44 195 -128l-166 -162q-107 104 -306 112v-393
q207 -27 356 -126q150 -99 150 -321q0 -172 -162 -297zM635 1263q-73 -18 -113 -40.5t-61 -57.5q-63 -108 3 -186q21 -25 59.5 -44.5t111.5 -42.5v371zM916 543q-22 36 -67 62t-128 49v-418q81 16 127 39.5t68 60.5q60 103 0 207z" />
    <glyph glyph-name="percent" unicode="%" horiz-adv-x="1900" 
d="M674 893q-103 -103 -256 -103q-151 0 -256 103q-103 103 -103 258q0 154 103 257q105 103 256 103q153 0 256 -103t103 -257q0 -155 -103 -258zM569 0h-184l846 1500h182zM579 1319q-63 69 -165 69q-100 0 -164 -69q-63 -69 -63 -167q0 -100 63 -169t165 -69t165 69
q63 71 63 169t-64 167zM1634 94q-102 -102 -254 -102q-150 0 -254 102q-102 102 -102 255q0 155 102 255q103 103 254 103q153 0 254 -103q102 -100 102 -255q0 -153 -102 -255zM1536 514q-63 68 -162 68q-97 0 -160 -68q-63 -66 -63 -164q0 -99 63 -165q61 -67 161 -67
q98 0 161 67q62 66 62 165q0 98 -62 164z" />
    <glyph glyph-name="ampersand" unicode="&#x26;" horiz-adv-x="1642" 
d="M1190 0l-140 170q-112 -102 -211 -138q-100 -38 -238 -38q-274 0 -407 150q-104 116 -104 265q0 137 88 249.5t280 207.5q-165 195 -165 345q0 124 100 211q103 89 297 89q186 0 283 -92q97 -93 97 -225q0 -84 -50 -159q-53 -79 -243 -197l262 -344q57 102 92 212
l197 -63q-37 -125 -60 -173q-26 -59 -84 -131l282 -339h-276zM687 1346q-78 0 -124 -36.5t-46 -99.5q0 -68 64 -141l91 -105l102 78q90 67 90 148q0 71 -47.5 113.5t-129.5 42.5zM570 727q-120 -60 -180.5 -139.5t-60.5 -168.5q0 -109 71 -177q69 -68 189 -68
q76 0 147.5 32.5t166.5 110.5z" />
    <glyph glyph-name="quotesingle" unicode="'" horiz-adv-x="500" 
d="M321 1501l-67 -403h-84l-68 414q-1 4 -1 9q0 21 23 44q22 22 87 22q64 0 87 -23q25 -24 25 -42q0 -10 -2 -21z" />
    <glyph glyph-name="parenleft" unicode="(" horiz-adv-x="944" 
d="M501 -380l-29 30q-61 64 -134 173q-123 180 -183 378q-59 196 -59 400q0 199 60 401q61 201 182 378q77 116 133 173l29 30h227q-34 -36 -39 -44q-121 -172 -201 -389q-77 -209 -77 -468q0 -14 0.5 -41t0.5 -40t-0.5 -40t-0.5 -41q0 -260 77 -467q81 -217 202 -386
q9 -13 21 -26q5 -5 19 -21h-228z" />
    <glyph glyph-name="parenright" unicode=")" horiz-adv-x="965" 
d="M705 201q-60 -198 -183 -378q-73 -109 -134 -173l-29 -30h-228q14 16 19 21q12 13 21 26q121 169 202 386q77 207 77 467q0 14 -0.5 41t-0.5 40t0.5 40t0.5 41q0 259 -77 468q-80 217 -201 389q-5 8 -39 44h227l29 -30q56 -57 133 -173q121 -177 182 -378
q60 -202 60 -401q0 -204 -59 -400z" />
    <glyph glyph-name="asterisk" unicode="*" horiz-adv-x="900" 
d="M703 1446l49 -126l-228 -72l150 -182l-107 -86l-156 193l-154 -193l-110 86l152 182l-225 72l47 126l220 -73v223h142v-223z" />
    <glyph glyph-name="plus" unicode="+" horiz-adv-x="1200" 
d="M653 620v-353h-198v353h-375v194h375v353h198v-353h375v-194h-375z" />
    <glyph glyph-name="comma" unicode="," horiz-adv-x="594" 
d="M203 -200l-27 44q45 24 77 66.5t60 117.5h-62q-71 0 -110.5 35.5t-39.5 90.5t39.5 91t108.5 36q72 0 112 -35.5t40 -91.5v-8q0 -238 -198 -346z" />
    <glyph glyph-name="hyphen" unicode="-" horiz-adv-x="900" 
d="M80 401v199h620v-199h-620z" />
    <glyph glyph-name="period" unicode="." horiz-adv-x="581" 
d="M241 0q-70 0 -110 39t-40 101t39.5 101.5t108.5 39.5q72 0 112 -39.5t40 -101.5t-40 -101t-110 -39z" />
    <glyph glyph-name="slash" unicode="/" horiz-adv-x="823" 
d="M194 -65h-188l616 1503h186z" />
    <glyph glyph-name="zero" unicode="0" horiz-adv-x="1260" 
d="M1027 211q-148 -211 -397 -211q-248 0 -397 211q-153 215 -153 539t153 539q150 211 397 211q249 0 397 -211q153 -217 153 -539t-153 -539zM842 1114q-88 156 -213 156q-123 0 -211 -156q-83 -148 -83 -364t83 -364q88 -156 213 -156q123 0 211 156q83 148 83 364
t-83 364z" />
    <glyph glyph-name="one" unicode="1" horiz-adv-x="846" 
d="M503 0v1188l-250 -239l-173 165l405 387h281v-1501h-263z" />
    <glyph glyph-name="two" unicode="2" horiz-adv-x="1178" 
d="M88 0v254q120 27 393 265q301 262 352 380q54 121 -6 244q-61 127 -282 127q-187 0 -298 -111l-167 163q88 84 177 129q93 49 329 49q220 0 363 -109q137 -107 137 -318q0 -259 -203 -475q-113 -120 -212 -197t-243 -150h670v-251h-1010z" />
    <glyph glyph-name="three" unicode="3" horiz-adv-x="1287" 
d="M1044 129q-167 -129 -387 -129q-217 0 -356 60q-128 55 -221 139l166 163q125 -122 358 -132q224 -9 291 104q60 104 0 208q-58 98 -363 113v219q303 -16 363 84q60 104 0 208q-62 104 -290 104q-193 0 -307 -111l-165 163q89 83 194 128q119 50 330 50q219 0 364 -127
q144 -128 144 -300q0 -200 -127 -270q-18 -10 -95 -45q104 -40 119 -46q145 -67 145 -285q0 -172 -163 -298z" />
    <glyph glyph-name="four" unicode="4" horiz-adv-x="1342" 
d="M1049 344v-344h-252v344h-717v265q5 13 5 20l697 872h267v-908h213v-249h-213zM797 1212l-478 -619h478v619z" />
    <glyph glyph-name="five" unicode="5" horiz-adv-x="1257" 
d="M1028 138q-152 -138 -370 -138q-216 0 -357 60q-128 55 -221 139l166 163q121 -118 338 -122q151 -3 239.5 56.5t104.5 179.5q-8 148 -109 219q-66 65 -360 65h-307v740h910v-230h-655v-280h158q314 0 458 -132q154 -142 154 -399q0 -185 -149 -321z" />
    <glyph glyph-name="six" unicode="6" horiz-adv-x="1260" 
d="M1041 142q-142 -146 -400 -142q-297 6 -429 198q-132 193 -132 530q0 364 157 568q157 203 414 203q237 0 401 -129l-125 -164q-115 54 -262 54q-321 0 -345 -455q115 97 196.5 136t155.5 39q262 0 384 -131q124 -133 124 -359q0 -204 -139 -348zM640 760
q-123 -3 -192.5 -73t-81.5 -198q7 -124 80 -191t205 -67q131 0 204.5 62t80.5 176q-6 143 -81.5 218.5t-214.5 72.5z" />
    <glyph glyph-name="seven" unicode="7" horiz-adv-x="1184" 
d="M521 0h-257l1 67l513 1203h-697l-1 230h1024v-78z" />
    <glyph glyph-name="eight" unicode="8" horiz-adv-x="1200" 
d="M978 104q-145 -104 -379 -104q-233 0 -378 104q-141 99 -141 323q0 218 146 285q16 7 120 46q-83 37 -97 45q-127 70 -127 270q0 205 128 315q129 112 351 112q219 0 348 -112q129 -111 129 -315q0 -200 -127 -270q-14 -8 -97 -45q104 -39 120 -46q146 -67 146 -285
q0 -224 -142 -323zM807 1166q-58 97 -207 103q-150 -6 -206 -103q-62 -104 0 -208q52 -87 206 -87q155 0 207 87q62 105 0 208zM600 647q-158 -25 -206 -105q-62 -104 0 -208q56 -97 206 -103q149 6 207 103q62 103 0 208q-47 79 -207 105z" />
    <glyph glyph-name="nine" unicode="9" horiz-adv-x="1206" 
d="M943 167q-180 -187 -433 -161q-240 25 -388 168l142 151q108 -65 257 -79q156 -15 254 86t135 332q-124 -85 -209.5 -115.5t-159.5 -24.5q-259 25 -370 168q-109 141 -87 369q21 205 174 333q165 137 413 102q228 -33 340.5 -192.5t114.5 -465.5q3 -475 -183 -671z
M585 1268q-131 0 -205 -62t-80 -176q6 -143 81.5 -218.5t214.5 -72.5q124 3 193.5 73t80.5 198q-6 124 -79 191t-206 67z" />
    <glyph glyph-name="colon" unicode=":" horiz-adv-x="586" 
d="M246 761q-71 0 -110.5 33t-39.5 84t39.5 85t108.5 34q73 0 112.5 -33.5t39.5 -85.5q0 -51 -39.5 -84t-110.5 -33zM246 0q-71 0 -110.5 33t-39.5 85q0 51 39.5 84.5t108.5 33.5q73 0 112.5 -33.5t39.5 -84.5q0 -52 -39.5 -85t-110.5 -33z" />
    <glyph glyph-name="semicolon" unicode=";" horiz-adv-x="602" 
d="M253 768q-71 0 -110.5 32.5t-39.5 83.5t39 84t108 33q73 0 112.5 -33t39.5 -84t-39.5 -83.5t-109.5 -32.5zM198 -200l-25 39q44 22 76 62t59 110h-62q-70 0 -109.5 32.5t-39.5 83.5t39 84t108 33q73 0 112.5 -33t39.5 -84v-8q0 -220 -198 -319z" />
    <glyph glyph-name="less" unicode="&#x3c;" horiz-adv-x="1148" 
d="M48 738v32l948 509v-172l-652 -357l652 -357v-172z" />
    <glyph glyph-name="equal" unicode="=" horiz-adv-x="1200" 
d="M100 844v156h900v-156h-900zM100 400v156h900v-156h-900z" />
    <glyph glyph-name="greater" unicode="&#x3e;" horiz-adv-x="1154" 
d="M100 221v172l652 357l-652 357v172l948 -509v-32z" />
    <glyph glyph-name="question" unicode="?" horiz-adv-x="1249" 
d="M1015 834q-60 -98 -204 -138q-166 -45 -185 -280h-236q6 171 65 283q65 122 221 152q170 33 175 244q-44 172 -323 175q-185 2 -298 -111l-167 163q91 84 196 128q119 50 331 50q181 0 342 -120q164 -121 158 -306q-4 -126 -75 -240zM518 0q-60 0 -94 32t-34 83
t33.5 83.5t92.5 32.5q62 0 96 -32.5t34 -83.5q0 -50 -34 -82.5t-94 -32.5z" />
    <glyph glyph-name="at" unicode="@" horiz-adv-x="2189" 
d="M1046 1433q278 0 494 -112t334 -317q119 -205 119 -465q0 -205 -98.5 -336.5t-252.5 -131.5q-90 0 -159.5 46.5t-102.5 124.5q-60 -92 -156 -143t-211 -51q-198 0 -331 135.5t-133 339.5t133 339.5t331 135.5q103 0 176.5 -42t140.5 -127v121h151v-551q0 -85 46 -138
t119 -53q92 0 149 91.5t57 239.5q0 220 -100.5 393t-283.5 269q-181 95 -418 95q-234 0 -416.5 -97t-287.5 -273q-103 -174 -103 -402q0 -223 96.5 -395t272 -267t401.5 -95q216 0 368 91v-140q-177 -90 -385 -90q-259 0 -461.5 113.5t-319.5 318.5q-113 202 -113 464
q0 198 69 367.5t195 290.5q124 119 299.5 185t380.5 66zM1025 199q137 0 226 92t89 233q0 142 -89 233t-226 91q-136 0 -227 -92.5t-91 -231.5q0 -140 90 -232.5t228 -92.5z" />
    <glyph glyph-name="A" unicode="A" horiz-adv-x="1688" 
d="M1333 0l-157 384h-672l-156 -384h-268l634 1491h261l633 -1491h-275zM840 1297l-241 -685h483z" />
    <glyph glyph-name="B" unicode="B" horiz-adv-x="1379" 
d="M769 0h-686l-3 1491h668q249 0 372 -123q95 -93 95 -232v-4q0 -114 -60 -199t-182 -148q172 -38 249 -121.5t77 -220.5v-5q0 -192 -144.5 -315t-385.5 -123zM947 1080q0 92 -67 138.5t-181 46.5h-358v-378h336q122 0 196 45t74 144v4zM1033 428q0 94 -71 143.5t-205 49.5
h-414v-390h425q120 0 192.5 47.5t72.5 145.5v4z" />
    <glyph glyph-name="C" unicode="C" horiz-adv-x="1447" 
d="M834 0q-320 0 -538 215q-217 214 -216 538q1 315 217 531t537 216q306 0 533 -180l-169 -184q-163 115 -364 114q-222 0 -364 -140q-138 -140 -138 -355q2 -230 141 -367q138 -137 363 -137q205 0 362 113l169 -184q-225 -180 -533 -180z" />
    <glyph glyph-name="D" unicode="D" horiz-adv-x="1438" 
d="M655 0h-575v1501h575q354 0 528.5 -186t174.5 -565q0 -378 -174.5 -564t-528.5 -186zM655 1249h-322v-999h322q223 0 336.5 127t113.5 373t-113.5 372.5t-336.5 126.5z" />
    <glyph glyph-name="E" unicode="E" horiz-adv-x="1262" 
d="M335 1270v-395l693 -2v-228l-693 2v-417h845v-230h-1100v1499l1102 1v-230h-847z" />
    <glyph glyph-name="F" unicode="F" horiz-adv-x="1215" 
d="M335 1270v-395h590v-229h-590v-646h-255v1500h1055v-230h-800z" />
    <glyph glyph-name="G" unicode="G" horiz-adv-x="1460" 
d="M834 0q-320 0 -538 215q-217 214 -216 538q0 314 217 531q216 216 537 216q307 0 532 -180l-168 -184q-163 115 -364 114q-222 0 -364 -140q-138 -140 -138 -355q2 -230 141 -367q138 -137 363 -137q181 0 292 82v314l-270 -3v231h522v-683q-228 -192 -546 -192z" />
    <glyph glyph-name="H" unicode="H" horiz-adv-x="1459" 
d="M1127 0v645h-795v-645h-252v1500h252v-625h795v626h252v-1500z" />
    <glyph glyph-name="I" unicode="I" horiz-adv-x="429" 
d="M80 0v1501h269v-1501h-269z" />
    <glyph glyph-name="J" unicode="J" horiz-adv-x="778" 
d="M697 385q0 -175 -112 -279q-112 -106 -295 -106h-210v227l97 3q124 4 188.5 70.5t64.5 188.5v1011h268z" />
    <glyph glyph-name="K" unicode="K" horiz-adv-x="1383" 
d="M976 0l-643 725v-725h-253v1500h253v-679l570 679h273l-591 -699l718 -801h-327z" />
    <glyph glyph-name="L" unicode="L" horiz-adv-x="1260" 
d="M80 0v1500h255v-1270h845v-230h-1100z" />
    <glyph glyph-name="M" unicode="M" horiz-adv-x="1661" 
d="M1330 0l-1 955l-499 -555l-499 555v-955h-251v1500h59l691 -786l692 786h59v-1500h-251z" />
    <glyph glyph-name="N" unicode="N" horiz-adv-x="1500" 
d="M1349 0l-1017 1012v-1012h-252v1500h61l1027 -1022v1022h252v-1500h-71z" />
    <glyph glyph-name="O" unicode="O" horiz-adv-x="1660" 
d="M1365 215q-215 -215 -535 -215q-322 0 -535 215q-215 215 -215 535t215 535t535 215t535 -215t215 -535t-215 -535zM1191 1120q-139 150 -362 150q-221 0 -360 -150q-138 -150 -138 -370t138 -370q139 -150 362 -150q221 0 360 150q138 150 138 370t-138 370z" />
    <glyph glyph-name="P" unicode="P" horiz-adv-x="1339" 
d="M738 645h-404v-645h-254v1500h657q266 0 394 -104.5t128 -314.5q0 -219 -128 -327.5t-393 -108.5zM810 1269h-476v-394h473q107 0 167 52.5t60 150.5q0 92 -59.5 141.5t-164.5 49.5z" />
    <glyph glyph-name="Q" unicode="Q" horiz-adv-x="1660" 
d="M1385 238l129 -168l-198 -153l-130 168q-172 -81 -356 -81q-322 0 -535 214q-215 215 -215 534t215 534q216 214 535 214t535 -214q215 -215 215 -534q0 -292 -195 -514zM1191 1121q-139 150 -362 150q-221 0 -360 -150q-138 -150 -138 -369t138 -369q139 -150 362 -150
q88 0 210 38l-125 164l199 152l119 -155q95 162 95 320q0 219 -138 369z" />
    <glyph glyph-name="R" unicode="R" horiz-adv-x="1393" 
d="M976 0l-318 573h-309l1 -573h-270v1491h657q272 0 417 -142q119 -119 119 -320v-4q0 -322 -338 -447l378 -578h-337zM1000 1012q0 121 -78.5 182.5t-212.5 61.5h-360v-490h366q132 0 208.5 65t76.5 177v4z" />
    <glyph glyph-name="S" unicode="S" horiz-adv-x="1287" 
d="M1044 129q-167 -129 -387 -129q-217 0 -356 60q-128 55 -221 139l166 163q125 -122 358 -132q224 -9 291 104q60 104 0 208q-61 102 -287 124q-178 17 -335 110q-143 85 -143 297q0 190 166 307q172 120 352 120q211 0 330 -50q103 -43 195 -128l-166 -163
q-111 111 -296 111q-209 0 -270 -104q-63 -106 3 -186q66 -78 263 -104q202 -27 350 -125q150 -101 150 -324q0 -172 -163 -298z" />
    <glyph glyph-name="T" unicode="T" horiz-adv-x="1460" 
d="M856 1270v-1270h-252v1270h-524v230h1300v-230h-524z" />
    <glyph glyph-name="U" unicode="U" horiz-adv-x="1460" 
d="M1197 159q-183 -159 -467 -159t-467 159t-183 383v958h252v-875q0 -192 117 -284q114 -90 281 -90t281 90q117 92 117 284v875h252v-958q0 -225 -183 -383z" />
    <glyph glyph-name="V" unicode="V" horiz-adv-x="1631" 
d="M951 0h-270l-601 1500h266l465 -1198l473 1198h267z" />
    <glyph glyph-name="W" unicode="W" horiz-adv-x="2143" 
d="M1667 0h-262l-333 1232l-333 -1232h-262l-397 1500h266l293 -1154l302 1154h272l292 -1156l292 1156h266z" />
    <glyph glyph-name="X" unicode="X" horiz-adv-x="1600" 
d="M1226 0l-426 583l-426 -583h-294l574 782l-525 718h291l380 -518l380 518h291l-525 -718l574 -782h-294z" />
    <glyph glyph-name="Y" unicode="Y" horiz-adv-x="1500" 
d="M876 760v-760h-252v760l-544 740h290l380 -532l388 532h282z" />
    <glyph glyph-name="Z" unicode="Z" horiz-adv-x="1361" 
d="M80 0l1 64l760 1206h-760l-1 230h1201v-75l-764 -1195h764v-230h-1201z" />
    <glyph glyph-name="bracketleft" unicode="[" horiz-adv-x="758" 
d="M350 1684v-1868h250v-216h-501v2299l501 1l1 -216h-251z" />
    <glyph glyph-name="backslash" unicode="\" horiz-adv-x="823" 
d="M620 -60l-614 1503h186l616 -1503h-188z" />
    <glyph glyph-name="bracketright" unicode="]" horiz-adv-x="800" 
d="M100 -400v216h250v1868h-251l1 216l501 -1v-2299h-501z" />
    <glyph glyph-name="asciicircum" unicode="^" horiz-adv-x="1000" 
d="M653 1260l-191 212l-183 -212h-180l363 417l375 -417h-184z" />
    <glyph glyph-name="underscore" unicode="_" horiz-adv-x="1300" 
d="M100 -200v154h1024v-154h-1024z" />
    <glyph glyph-name="a" unicode="a" horiz-adv-x="1103" 
d="M1018 3h-236l7 128q-35 -39 -71 -65t-63 -39.5t-68 -20t-65 -7.5t-76 -1h-7.5h-7h-7.5q-151 0 -247.5 79.5t-96.5 221.5v4q0 154 109 234.5t301 80.5q76 0 139 -13t159 -44v61q0 113 -69.5 171.5t-196.5 58.5q-144 0 -282 -49l-58 176q182 74 385 74q233 0 347 -112
q111 -111 109 -324zM792 444q-118 52 -229 52q-109 0 -177 -46t-68 -135v-4q0 -78 57 -120.5t143 -42.5q120 0 197 60t77 161v75z" />
    <glyph glyph-name="b" unicode="b" horiz-adv-x="1160" 
d="M945 146q-134 -146 -365 -146q-53 0 -113.5 24.5t-151.5 87.5v-112h-235v1499l235 1v-648q71 70 130.5 98t135.5 30q224 6 364 -147q135 -147 135 -343q0 -195 -135 -344zM568 801q-229 -34 -253 -235v-172q25 -182 253 -216q307 12 319 334q-35 266 -319 289z" />
    <glyph glyph-name="c" unicode="c" horiz-adv-x="1044" 
d="M800 732q-98 86 -216 86q-121 0 -210 -95q-89 -94 -89 -223q0 -130 83 -223q84 -95 216 -95q118 0 216 86l164 -122q-157 -146 -380 -146q-204 0 -355 126q-149 123 -149 321v106q0 198 149 321q151 126 356 126q224 0 379 -146z" />
    <glyph glyph-name="d" unicode="d" horiz-adv-x="1160" 
d="M845 0v112q-91 -63 -151.5 -87.5t-113.5 -24.5q-231 0 -365 146q-135 149 -135 344q0 196 135 343q140 153 364 147q76 -2 135.5 -30t130.5 -98v648l235 -1v-1499h-235zM845 566q-24 201 -253 235q-284 -23 -319 -289q12 -322 319 -334q228 34 253 216v172z" />
    <glyph glyph-name="e" unicode="e" horiz-adv-x="1140" 
d="M1060 425h-738q10 -73 31 -116.5t60 -72.5q72 -54 168 -54q146 0 262 76l132 -132q-114 -126 -394 -126q-223 0 -361 140q-140 138 -140 360t140 360q138 140 361 140q219 0 349 -139t130 -361v-75zM748 764q-72 54 -167 54q-96 0 -168 -54q-40 -30 -58 -74t-18 -115h488
q0 71 -18.5 115t-58.5 74z" />
    <glyph glyph-name="f" unicode="f" horiz-adv-x="947" 
d="M747 1296q-39 21 -104 21q-75 0 -118 -45t-43 -137v-128h162v-174h-162v-833h-240v833h-162v174h162v170q0 143 98 232q99 91 270 91q161 0 257 -76z" />
    <glyph glyph-name="g" unicode="g" horiz-adv-x="1160" 
d="M955 -275q-114 -125 -314 -145l-62 -6q-275 6 -434 144l100 114q122 -78 278 -84q182 -6 255 91q67 87 67 190v116q-91 -71 -161.5 -99t-146.5 -28q-229 0 -342 131q-115 130 -115 360q0 218 125 355q128 142 353 136q87 -2 151 -33.5t136 -112.5v143l235 -25v-901
q0 -207 -125 -346zM845 586q-24 201 -253 235q-296 -11 -319 -290q12 -322 319 -334q228 34 253 216v173z" />
    <glyph glyph-name="h" unicode="h" 
d="M753 0v542q0 117 -63 183t-183 69q-111 -8 -190 -111v-683h-237v1500h237v-652q85 75 150 103t137 28q190 0 287 -109q99 -109 99 -255v-615h-237z" />
    <glyph glyph-name="i" unicode="i" horiz-adv-x="429" 
d="M215 1152q-63 0 -99 32t-36 82t35.5 82.5t97.5 32.5q65 0 100.5 -32.5t35.5 -82.5t-35.5 -82t-98.5 -32zM92 0v984h239v-984h-239z" />
    <glyph glyph-name="j" unicode="j" horiz-adv-x="749" 
d="M535 1152q-63 0 -99 32t-36 82t35.5 82.5t97.5 32.5q65 0 100.5 -32.5t35.5 -82.5t-35.5 -82t-98.5 -32zM659 -48q0 -173 -102 -278q-102 -104 -285 -104h-192v176h78q125 0 190 68t65 190v983h247z" />
    <glyph glyph-name="k" unicode="k" horiz-adv-x="1148" 
d="M736 0l-400 469v-469h-256v1500h256v-938l351 417h276l-371 -436l476 -543h-332z" />
    <glyph glyph-name="l" unicode="l" horiz-adv-x="401" 
d="M80 0v1500h241v-1500h-241z" />
    <glyph glyph-name="m" unicode="m" horiz-adv-x="1690" 
d="M1610 0h-230v553q0 251 -230 258q-103 -8 -179 -138q-6 -45 -6 -77v-596h-230v553q0 120 -56.5 187t-173.5 70q-113 -7 -195 -153v-657h-230l2 1002l228 -1v-136q80 77 143.5 106t136.5 29q95 0 166.5 -32t134.5 -106q68 73 150 105.5t194 32.5q184 0 278 -111
q97 -115 97 -262v-627z" />
    <glyph glyph-name="n" unicode="n" 
d="M990 0h-237v553q0 119 -63 186.5t-183 70.5q-114 -7 -190 -158v-652h-237l3 999l234 2v-135q85 76 150 105t137 29q190 0 287 -112q99 -112 99 -261v-627z" />
    <glyph glyph-name="o" unicode="o" horiz-adv-x="1180" 
d="M954 136q-146 -146 -364 -146q-220 0 -364 146q-146 146 -146 364t146 364t364 146t364 -146t146 -364t-146 -364zM808 723q-84 91 -220 91q-134 0 -218 -91t-84 -224t84 -224t219 -91t219 91t84 224t-84 224z" />
    <glyph glyph-name="p" unicode="p" horiz-adv-x="1160" 
d="M945 166q-140 -153 -364 -147q-76 2 -135.5 30t-130.5 98v-568l-235 1v1393l235 25v-109q91 63 151.5 87.5t113.5 24.5q231 0 365 -146q135 -149 135 -345q0 -197 -135 -344zM568 823q-228 -36 -253 -217v-173q24 -201 253 -235q284 23 319 290q-6 160 -86 244.5
t-233 90.5z" />
    <glyph glyph-name="q" unicode="q" horiz-adv-x="1160" 
d="M845 -421v568q-71 -70 -130.5 -98t-135.5 -30q-224 -6 -364 147q-135 147 -135 344q0 196 135 345q134 146 365 146q53 0 113.5 -24.5t151.5 -87.5v109l235 -25v-1393zM845 606q-25 181 -253 217q-153 -6 -233 -90.5t-86 -244.5q35 -267 319 -290q229 34 253 235v173z
" />
    <glyph glyph-name="r" unicode="r" horiz-adv-x="789" 
d="M674 782q-52 26 -131 29q-134 -10 -219 -182v-629h-244v972l244 26v-160q92 92 165 127t155 35q37 0 65 -4z" />
    <glyph glyph-name="s" unicode="s" horiz-adv-x="920" 
d="M732 67q-113 -77 -264 -77q-243 0 -388 129l125 138q81 -73 226 -85q139 0 185 49q51 58 14 117q-32 51 -195 69q-126 14 -229 75q-94 57 -94 218q0 147 111 225q116 81 239 81q145 0 225 -33q72 -33 126 -81l-125 -139q-77 71 -183 71q-123 0 -170 -50
q-26 -29 -26 -59.5t29 -56.5q45 -39 162 -61q154 -15 250 -85q90 -65 90 -237q0 -136 -108 -208z" />
    <glyph glyph-name="t" unicode="t" horiz-adv-x="839" 
d="M617 0q-172 0 -274 91q-99 90 -99 234v485h-164v175h164v287l244 25v-312h164v-175h-164v-443q0 -92 43 -137.5t119 -45.5q20 0 60 9l49 -160q-63 -33 -142 -33z" />
    <glyph glyph-name="u" unicode="u" 
d="M753 0v135q-85 -76 -150 -105t-137 -29q-190 0 -287 112q-99 112 -99 261v627h237v-553q0 -119 63 -186.5t183 -71.5q114 9 190 148v663h237v-1001h-237z" />
    <glyph glyph-name="v" unicode="v" horiz-adv-x="1173" 
d="M693 0h-212l-401 1000h233l271 -721l276 721h233z" />
    <glyph glyph-name="w" unicode="w" horiz-adv-x="1477" 
d="M1134 0h-215l-180 610l-180 -610h-215l-264 1001h211l187 -722l180 722h169l173 -738l186 738h211z" />
    <glyph glyph-name="x" unicode="x" horiz-adv-x="1104" 
d="M794 0l-242 356l-242 -356h-230l358 522l-324 476h227l211 -309l211 309h227l-324 -476l358 -522h-230z" />
    <glyph glyph-name="y" unicode="y" horiz-adv-x="1272" 
d="M762 -32q-71 -171 -145.5 -236.5t-205.5 -65.5q-135 0 -252 61l85 180q68 -33 126 -33q54 0 86.5 23t61.5 82l-438 1032h278l281 -814l280 814h273z" />
    <glyph glyph-name="z" unicode="z" horiz-adv-x="959" 
d="M80 0v31l473 779h-473v188h799v-38l-474 -772h474v-188h-799z" />
    <glyph glyph-name="braceleft" unicode="{" horiz-adv-x="1004" 
d="M801 -284q-137 25 -229 61t-142.5 86t-70.5 106t-20 131q0 16 3 72.5t3 73.5q0 138 -64.5 194t-209.5 56h-26v184h26q145 0 209.5 55.5t64.5 193.5q0 17 -3 74t-3 72q0 75 20 131.5t70.5 106t142.5 86t229 61.5l44 -158q-82 -23 -133.5 -48.5t-80 -59.5t-38.5 -72
t-10 -93q0 -21 3 -78t3 -79q0 -105 -63 -167t-235 -117q172 -56 235 -117.5t63 -166.5q0 -23 -3 -79.5t-3 -77.5q0 -56 10 -93.5t38.5 -71.5t80 -60t133.5 -49z" />
    <glyph glyph-name="bar" unicode="|" horiz-adv-x="583" 
d="M377 -389h-171v2109h171v-2109z" />
    <glyph glyph-name="braceright" unicode="}" horiz-adv-x="1004" 
d="M877 496q-145 0 -209.5 -56t-64.5 -194q0 -17 3 -73.5t3 -72.5q0 -75 -20 -131t-70.5 -106t-142.5 -86t-229 -61l-44 157q82 23 133.5 49t80 60t38.5 71.5t10 93.5q0 21 -3 77.5t-3 79.5q0 105 63 166.5t235 117.5q-172 55 -235 117t-63 167q0 22 3 79t3 78q0 55 -10 93
t-38.5 72t-80 59.5t-133.5 48.5l44 158q137 -25 229 -61.5t142.5 -86t70.5 -106t20 -131.5q0 -15 -3 -72t-3 -74q0 -138 64.5 -193.5t209.5 -55.5h26v-184h-26z" />
    <glyph glyph-name="asciitilde" unicode="~" horiz-adv-x="1242" 
d="M838 484q-72 0 -132.5 28t-138.5 96q-51 48 -81 65t-62 17q-62 0 -100.5 -47.5t-38.5 -123.5v-29h-133v35q0 145 73.5 231t196.5 86q76 0 136 -28.5t131 -97.5q50 -48 80.5 -65t65.5 -17q62 0 99 45t37 121v31h133v-33q0 -145 -71.5 -229.5t-194.5 -84.5z" />
    <glyph glyph-name="exclamdown" unicode="&#xa1;" horiz-adv-x="664" 
d="M333 1171q-71 0 -110.5 32.5t-39.5 83.5t39 84t108 33q73 0 112.5 -33t39.5 -84t-39.5 -83.5t-109.5 -32.5zM380 1038l80 -947q5 -60 -21 -81.5t-107 -20.5q-80 1 -105 24t-20 83l74 944z" />
    <glyph glyph-name="cent" unicode="&#xa2;" horiz-adv-x="1283" 
d="M744 146q98 16 174 72.5t118 145.5l175 -4q-47 -156 -171 -257.5t-292 -120.5v-163h-148v163q-218 24 -359.5 177.5t-141.5 368.5q0 217 141 369.5t360 175.5v174h148v-174q169 -19 293 -119.5t169 -255.5h-176q-40 86 -115.5 140.5t-174.5 70.5v-763zM602 909
q-144 -23 -235.5 -128.5t-91.5 -252.5q0 -144 91 -250t231 -131z" />
    <glyph glyph-name="sterling" unicode="&#xa3;" horiz-adv-x="1365" 
d="M166 0v197q172 187 77 426q-4 7 -14 34h-138v113h108q-24 167 -1 319q31 196 159 303q131 108 319 108q183 0 288 -44q97 -41 187 -126l-141 -188q-110 107 -293 118q-165 -13 -235 -94q-71 -85 -76 -238q-2 -73 13 -158h456v-113h-419q35 -95 32 -204t-44 -275h748v-178
h-1026z" />
    <glyph glyph-name="currency" unicode="&#xa4;" horiz-adv-x="1475" 
d="M902 -25q-231 0 -387.5 128.5t-224.5 360.5h-190v154h164q-5 56 -5 95v4q0 49 5 107h-164v154h194q68 224 225 352t377 128q170 0 284 -60.5t201 -175.5l-201 -151q-65 79 -132 118t-159 39q-107 0 -184 -60t-140 -190h416v-154h-444q-5 -52 -5 -103v-4q0 -47 5 -99h444
v-154h-416q61 -135 142 -196.5t195 -61.5q91 0 157.5 39.5t137.5 124.5l188 -138q-96 -126 -210 -191.5t-273 -65.5z" />
    <glyph glyph-name="yen" unicode="&#xa5;" horiz-adv-x="1405" 
d="M887 729h338v-169h-395v-194h395v-169h-395v-197h-255v197h-395v169h395v194h-395v169h333l-459 705h305l348 -583l349 583h294z" />
    <glyph glyph-name="copyright" unicode="&#xa9;" horiz-adv-x="1674" 
d="M839 -11q-209 0 -374.5 93.5t-258.5 262.5q-93 168 -93 381q0 212 92.5 381t258.5 263q165 93 375 93q209 0 377 -94t260 -262q93 -169 93 -381t-93 -380.5t-260 -262.5t-377 -94zM839 99q131 0 246 46t198 129t129 200.5t46 251.5q0 181 -79 325t-220 222
q-142 79 -320 79t-318 -79t-220 -222q-78 -140 -78 -325q0 -276 172.5 -451.5t443.5 -175.5zM845 319q-114 0 -205 53.5t-142 149.5t-51 216q0 119 51.5 213.5t143.5 150.5q88 53 203 53q138 0 236.5 -70t132.5 -199h-100q-30 84 -100 126.5t-169 42.5q-130 0 -214 -89
t-84 -228q0 -140 83.5 -229.5t214.5 -89.5q101 0 172.5 46.5t100.5 138.5h100q-32 -136 -132.5 -210.5t-240.5 -74.5z" />
    <glyph glyph-name="guillemotleft" unicode="&#xab;" horiz-adv-x="987" 
d="M568 677l-212 -191l212 -183v-180l-417 363l417 375v-184zM934 677l-212 -191l212 -183v-180l-417 363l417 375v-184z" />
    <glyph glyph-name="uni00AD" unicode="&#xad;" horiz-adv-x="900" 
d="M80 401v199h620v-199h-620z" />
    <glyph glyph-name="registered" unicode="&#xae;" horiz-adv-x="1019" 
d="M221 1341q119 113 290 113t290 -113t119 -276t-119 -277t-290 -114q-170 0 -290 114.5t-120 276.5q0 163 120 276zM275 841q98 -92 236 -92q139 0 235.5 92t96.5 224q0 130 -97 222t-235 92q-139 0 -236.5 -91.5t-97.5 -222.5q0 -132 98 -224zM696 845h-71l-99 171h-106
v-171h-58v440h176q65 0 107.5 -38.5t42.5 -97.5q0 -45 -27.5 -79t-74.5 -47zM533 1232h-113v-163h113q43 0 69.5 22.5t26.5 58.5t-26.5 59t-69.5 23z" />
    <glyph glyph-name="degree" unicode="&#xb0;" horiz-adv-x="772" 
d="M578 988q-84 -92 -218 -92t-216 91q-84 93 -84 210t85 211q83 92 217 92t217 -93q85 -95 85 -210q0 -114 -86 -209zM514 1364q-71 60 -151 60q-78 0 -152 -60q-75 -62 -75 -166q0 -103 75 -166q72 -60 152 -60t151 60q74 62 74 166t-74 166z" />
    <glyph glyph-name="guillemotright" unicode="&#xbb;" horiz-adv-x="987" 
d="M104 677v184l417 -375l-417 -363v180l212 183zM470 677v184l417 -375l-417 -363v180l212 183z" />
    <glyph glyph-name="Agrave" unicode="&#xc0;" horiz-adv-x="1687" 
d="M749 1596l-230 213l212 92l196 -305h-178zM1332 0l-157 381h-672l-156 -381h-267l633 1478h261l633 -1478h-275zM839 1285l-241 -678h483z" />
    <glyph glyph-name="Aacute" unicode="&#xc1;" horiz-adv-x="1687" 
d="M946 1596h-179l196 305l212 -92zM1332 0l-157 381h-672l-156 -381h-267l633 1478h261l633 -1478h-275zM839 1285l-241 -678h483z" />
    <glyph glyph-name="Acircumflex" unicode="&#xc2;" horiz-adv-x="1687" 
d="M1024 1597l-179 149l-179 -149h-171l214 271h276l214 -271h-175zM1332 0l-157 381h-672l-156 -381h-267l633 1479h261l633 -1479h-275zM839 1286l-241 -679h483z" />
    <glyph glyph-name="Atilde" unicode="&#xc3;" horiz-adv-x="1687" 
d="M1022 1597q-71 0 -171 39q-11 4 -37 14.5t-39 14.5q-42 14 -73 14q-52 0 -82 -24.5t-55 -72.5l-118 36q39 125 90 183t135 58q67 0 170 -39q43 -18 76 -29q47 -15 74 -15q53 0 83 24.5t54 73.5l119 -37q-37 -124 -89.5 -182t-136.5 -58zM1332 0l-157 381h-672l-156 -381
h-267l633 1478h261l633 -1478h-275zM839 1286l-241 -679h483z" />
    <glyph glyph-name="Adieresis" unicode="&#xc4;" horiz-adv-x="1687" 
d="M619 1594q-63 0 -99 32t-36 82t35.5 82.5t97.5 32.5q65 0 100.5 -32.5t35.5 -82.5t-35.5 -82t-98.5 -32zM1080 1594q-63 0 -99 32t-36 82t35.5 82.5t97.5 32.5q65 0 100.5 -32.5t35.5 -82.5t-35.5 -82t-98.5 -32zM1332 0l-157 381h-672l-156 -381h-267l633 1480h261
l633 -1480h-275zM839 1287l-241 -679h483z" />
    <glyph glyph-name="Aring" unicode="&#xc5;" horiz-adv-x="1648" 
d="M1294 0l-132 381h-674l-142 -381h-266l612 1431q-95 88 -95 177v4q0 86 68 150.5t159 64.5t159 -64.5t68 -150.5v-4q0 -89 -95 -177l612 -1431h-274zM987 1612q0 66 -47.5 113t-115.5 47t-115.5 -47t-47.5 -113v-4q0 -66 47.5 -113t115.5 -47t115.5 47t47.5 113v4z
M825 1200l-244 -592h488z" />
    <glyph glyph-name="AE" unicode="&#xc6;" horiz-adv-x="2153" 
d="M1062 0v335h-545l-175 -335h-262l763 1434h1219v-231h-739v-365h644v-231h-644v-376h750v-231h-1011zM1062 1211h-87l-339 -647h426v647z" />
    <glyph glyph-name="Ccedilla" unicode="&#xc7;" horiz-adv-x="1470" 
d="M850 -12l-94 -332l-209 87l133 255q-276 64 -438 259.5t-162 460.5v4q0 151 55.5 286t153 234t238.5 157.5t304 58.5q183 0 314 -52t235 -148l-170 -194q-91 76 -182 115.5t-199 39.5q-133 0 -240.5 -67t-166.5 -179.5t-59 -245.5v-5q0 -133 58 -246t165.5 -181.5
t242.5 -68.5q121 0 211.5 40.5t181.5 121.5l168 -168q-108 -110 -232.5 -167.5t-307.5 -64.5z" />
    <glyph glyph-name="Egrave" unicode="&#xc8;" horiz-adv-x="1262" 
d="M621 1596l-233 213l216 92l199 -305h-182zM335 1259v-391l693 -2v-227l-693 2v-413h845v-228h-1100v1486l1102 1v-228h-847z" />
    <glyph glyph-name="Eacute" unicode="&#xc9;" horiz-adv-x="1262" 
d="M733 1596h-182l200 305l215 -92zM335 1259v-391l693 -2v-227l-693 2v-413h845v-228h-1100v1486l1102 1v-228h-847z" />
    <glyph glyph-name="Ecircumflex" unicode="&#xca;" horiz-adv-x="1262" 
d="M852 1597l-182 149l-183 -149h-173l217 271h281l218 -271h-178zM335 1260v-392l693 -2v-227l-693 2v-413h845v-228h-1100v1487l1102 1v-228h-847z" />
    <glyph glyph-name="Edieresis" unicode="&#xcb;" horiz-adv-x="1262" 
d="M441 1599q-63 0 -99 32t-36 82t35.5 82.5t97.5 32.5q65 0 100.5 -32.5t35.5 -82.5t-35.5 -82t-98.5 -32zM902 1599q-63 0 -99 32t-36 82t35.5 82.5t97.5 32.5q65 0 100.5 -32.5t35.5 -82.5t-35.5 -82t-98.5 -32zM335 1261v-392l693 -2v-227l-693 2v-414h845v-228h-1100
v1488l1102 1v-228h-847z" />
    <glyph glyph-name="Igrave" unicode="&#xcc;" horiz-adv-x="621" 
d="M330 1596l-250 213l232 92l215 -305h-197zM272 0v1501h269v-1501h-269z" />
    <glyph glyph-name="Iacute" unicode="&#xcd;" horiz-adv-x="607" 
d="M276 1596h-196l214 305l233 -92zM133 0v1501h269v-1501h-269z" />
    <glyph glyph-name="Icircumflex" unicode="&#xce;" horiz-adv-x="892" 
d="M630 1597l-186 149l-186 -149h-178l222 271h288l222 -271h-182zM305 0v1501h269v-1501h-269z" />
    <glyph glyph-name="Idieresis" unicode="&#xcf;" horiz-adv-x="890" 
d="M215 1599q-63 0 -99 32t-36 82t35.5 82.5t97.5 32.5q65 0 100.5 -32.5t35.5 -82.5t-35.5 -82t-98.5 -32zM676 1599q-63 0 -99 32t-36 82t35.5 82.5t97.5 32.5q65 0 100.5 -32.5t35.5 -82.5t-35.5 -82t-98.5 -32zM303 0v1501h269v-1501h-269z" />
    <glyph glyph-name="Eth" unicode="&#xd0;" horiz-adv-x="1634" 
d="M792 0h-552v607h-160v228h160v599h552q167 0 310 -55t241.5 -150.5t154.5 -227t56 -280.5v-4q0 -150 -56 -282t-154.5 -228t-241.5 -151.5t-310 -55.5zM1273 717q0 212 -134.5 346.5t-346.5 134.5h-289v-363h324v-228h-324v-372h289q213 0 347 133t134 345v4z" />
    <glyph glyph-name="Ntilde" unicode="&#xd1;" horiz-adv-x="1500" 
d="M942 1597q-71 0 -171 39q-12 4 -38 14.5t-39 14.5q-42 14 -73 14q-53 0 -83 -24.5t-55 -72.5l-119 36q40 125 91 183t136 58q66 0 171 -39q45 -18 77 -29q45 -15 73 -15q53 0 83.5 24.5t55.5 73.5l119 -37q-37 -124 -90 -182t-138 -58zM1349 0l-1017 1003v-1003h-252
v1488h61l1027 -1014v1014h252v-1488h-71z" />
    <glyph glyph-name="Ograve" unicode="&#xd2;" horiz-adv-x="1660" 
d="M786 1596l-229 213l212 92l196 -305h-179zM1365 213q-215 -213 -535 -213q-322 0 -535 213q-215 213 -215 530q0 318 215 531t535 213t535 -213t215 -531q0 -317 -215 -530zM1191 1110q-139 149 -362 149q-221 0 -360 -149q-138 -148 -138 -367q0 -217 138 -366
q139 -149 362 -149q221 0 360 149q138 149 138 366q0 219 -138 367z" />
    <glyph glyph-name="Oacute" unicode="&#xd3;" horiz-adv-x="1660" 
d="M1026 1596h-178l196 305l212 -92zM1365 213q-215 -213 -535 -213q-322 0 -535 213q-215 213 -215 530q0 318 215 531t535 213t535 -213t215 -531q0 -317 -215 -530zM1191 1110q-139 149 -362 149q-221 0 -360 -149q-138 -148 -138 -367q0 -217 138 -366
q139 -149 362 -149q221 0 360 149q138 149 138 366q0 219 -138 367z" />
    <glyph glyph-name="Ocircumflex" unicode="&#xd4;" horiz-adv-x="1660" 
d="M1084 1597l-180 149l-179 -149h-171l214 271h277l214 -271h-175zM1365 213q-215 -213 -535 -213q-322 0 -535 213q-215 215 -215 531q0 318 215 531q216 213 535 213t535 -213q215 -213 215 -531t-215 -531zM1191 1111q-139 149 -362 149q-221 0 -360 -149
q-138 -149 -138 -367t138 -367q139 -149 362 -149q221 0 360 149q138 149 138 367t-138 367z" />
    <glyph glyph-name="Otilde" unicode="&#xd5;" horiz-adv-x="1660" 
d="M1081 1597q-72 0 -170 39q-12 4 -38 14.5t-39 14.5q-42 14 -73 14q-52 0 -82 -24.5t-55 -72.5l-119 36q39 125 90.5 183t136.5 58q66 0 169 -39q56 -22 77 -29q45 -15 73 -15q53 0 83 24.5t55 73.5l119 -37q-37 -124 -89.5 -182t-137.5 -58zM1365 213
q-215 -213 -535 -213q-322 0 -535 213q-215 213 -215 531t215 531q216 213 535 213t535 -213q215 -213 215 -531t-215 -531zM1191 1111q-140 149 -362 149q-220 0 -360 -149q-138 -150 -138 -367q0 -218 138 -367q139 -149 362 -149q221 0 360 149q138 149 138 367
q0 217 -138 367z" />
    <glyph glyph-name="Odieresis" unicode="&#xd6;" horiz-adv-x="1660" 
d="M600 1599q-63 0 -99 32t-36 82t35.5 82.5t97.5 32.5q65 0 100.5 -32.5t35.5 -82.5t-35.5 -82t-98.5 -32zM1061 1599q-63 0 -99 32t-36 82t35.5 82.5t97.5 32.5q65 0 100.5 -32.5t35.5 -82.5t-35.5 -82t-98.5 -32zM1365 213q-216 -213 -535 -213q-322 0 -535 213
q-215 215 -215 532q0 318 215 531t535 213t535 -213t215 -531q0 -319 -215 -532zM1191 1112q-139 149 -362 149q-221 0 -360 -149q-138 -150 -138 -367q0 -219 138 -367q139 -150 362 -150q221 0 360 150q138 148 138 367q0 217 -138 367z" />
    <glyph glyph-name="Oslash" unicode="&#xd8;" horiz-adv-x="1683" 
d="M839 -25q-216 0 -417 115l-91 -100h-232l183 211q-202 226 -202 512v4q0 151 57.5 287t157.5 236t243 159t306 59q216 0 417 -115l90 100h233l-183 -212q202 -227 202 -510v-4q0 -151 -57.5 -287.5t-157.5 -236.5t-243 -159t-306 -59zM839 1223q-139 0 -250.5 -68.5
t-172.5 -183t-61 -250.5v-4q0 -155 99 -314l645 748q-138 72 -260 72zM1328 717q0 155 -99 314l-645 -748q140 -73 260 -73q139 0 250.5 68.5t172.5 183t61 251.5v4z" />
    <glyph glyph-name="Ugrave" unicode="&#xd9;" horiz-adv-x="1460" 
d="M667 1586l-232 213l214 92l198 -305h-180zM1197 158q-184 -158 -467 -158t-467 158q-183 156 -183 379v950h252v-867q0 -191 117 -282q114 -90 281 -90t281 90q117 91 117 282v867h252v-950q0 -223 -183 -379z" />
    <glyph glyph-name="Uacute" unicode="&#xda;" horiz-adv-x="1460" 
d="M844 1586h-180l198 305l213 -92zM1197 158q-184 -158 -467 -158t-467 158q-183 156 -183 379v950h252v-867q0 -191 117 -282q114 -90 281 -90t281 90q117 91 117 282v867h252v-950q0 -223 -183 -379z" />
    <glyph glyph-name="Ucircumflex" unicode="&#xdb;" horiz-adv-x="1460" 
d="M934 1597l-181 149l-181 -149h-171l215 271h279l215 -271h-176zM1197 158q-184 -158 -467 -158t-467 158q-183 156 -183 379v951h252v-868q0 -191 117 -282q113 -89 281 -89t281 89q117 91 117 282v868h252v-951q0 -223 -183 -379z" />
    <glyph glyph-name="Udieresis" unicode="&#xdc;" horiz-adv-x="1460" 
d="M527 1599q-63 0 -99 32t-36 82t35.5 82.5t97.5 32.5q65 0 100.5 -32.5t35.5 -82.5t-35.5 -82t-98.5 -32zM988 1599q-63 0 -99 32t-36 82t35.5 82.5t97.5 32.5q65 0 100.5 -32.5t35.5 -82.5t-35.5 -82t-98.5 -32zM1197 158q-184 -158 -467 -158t-467 158
q-183 156 -183 380v951h252v-868q0 -191 117 -283q113 -89 281 -89t281 89q117 92 117 283v868h252v-951q0 -224 -183 -380z" />
    <glyph glyph-name="Yacute" unicode="&#xdd;" horiz-adv-x="1500" 
d="M858 1586h-180l197 305l213 -92zM876 754v-754h-252v754l-544 733h291l379 -527l388 527h282z" />
    <glyph glyph-name="Thorn" unicode="&#xde;" horiz-adv-x="1295" 
d="M634 231h-283v-231h-271v1434h271v-218h316q256 0 402 -133.5t146 -352.5v-5q0 -158 -77.5 -271.5t-207 -168t-296.5 -54.5zM940 723q0 124 -82 190.5t-219 66.5h-288v-518h294q134 0 214.5 72t80.5 185v4z" />
    <glyph glyph-name="germandbls" unicode="&#xdf;" horiz-adv-x="1203" 
d="M582 -5v184q130 12 203.5 68t73.5 157v4q0 96 -77 153t-200 80v170q88 58 139.5 125t51.5 157v4q0 94 -56 147.5t-149 53.5q-99 0 -160.5 -68t-61.5 -176v-1054h-266v1041q0 220 135 344t368 124q216 0 334.5 -107.5t118.5 -274.5v-5q0 -82 -27.5 -144.5t-74 -107.5
t-129.5 -101q157 -67 237.5 -153t80.5 -218v-4q0 -188 -144 -296t-397 -103z" />
    <glyph glyph-name="agrave" unicode="&#xe0;" horiz-adv-x="1103" 
d="M498 1266l-235 215l218 92l201 -307h-184zM1018 3h-236l7 128q-35 -39 -71 -65t-63 -39.5t-68 -20t-65 -7.5t-76 -1h-7.5h-7h-7.5q-151 0 -247.5 79.5t-96.5 221.5v4q0 154 109 234.5t301 80.5q76 0 139 -13t159 -44v61q0 113 -69.5 171.5t-196.5 58.5q-144 0 -282 -49
l-58 176q182 74 385 74q233 0 347 -112q111 -111 109 -324zM792 444q-118 52 -229 52q-109 0 -177 -46t-68 -135v-4q0 -78 57 -120.5t143 -42.5q120 0 197 60t77 161v75z" />
    <glyph glyph-name="aacute" unicode="&#xe1;" horiz-adv-x="1103" 
d="M668 1266h-184l202 307l218 -92zM1018 3h-236l7 128q-35 -39 -71 -65t-63 -39.5t-68 -20t-65 -7.5t-76 -1h-7.5h-7h-7.5q-151 0 -247.5 79.5t-96.5 221.5v4q0 154 109 234.5t301 80.5q76 0 139 -13t159 -44v61q0 113 -69.5 171.5t-196.5 58.5q-144 0 -282 -49l-58 176
q182 74 385 74q233 0 347 -112q111 -111 109 -324zM792 444q-118 52 -229 52q-109 0 -177 -46t-68 -135v-4q0 -78 57 -120.5t143 -42.5q120 0 197 60t77 161v75z" />
    <glyph glyph-name="acircumflex" unicode="&#xe2;" horiz-adv-x="1103" 
d="M755 1267l-184 150l-184 -150h-175l219 273h285l219 -273h-180zM1018 3h-236l7 128q-35 -39 -71 -65t-63 -39.5t-68 -20t-65 -7.5t-76 -1h-7.5h-7h-7.5q-151 0 -247.5 79.5t-96.5 221.5v4q0 154 109 234.5t301 80.5q76 0 139 -13t159 -44v61q0 113 -69.5 171.5
t-196.5 58.5q-144 0 -282 -49l-58 176q182 74 385 74q233 0 347 -112q111 -111 109 -324zM792 444q-118 52 -229 52q-109 0 -177 -46t-68 -135v-4q0 -78 57 -120.5t143 -42.5q120 0 197 60t77 161v75z" />
    <glyph glyph-name="atilde" unicode="&#xe3;" horiz-adv-x="1103" 
d="M757 1267q-68 0 -175 39q-62 24 -78 29q-47 15 -75 15q-53 0 -84 -24.5t-57 -73.5l-121 37q40 126 92.5 184t139.5 58q67 0 174 -39q50 -20 78 -29q47 -15 75 -15q54 0 85 24.5t56 73.5l122 -37q-38 -124 -91.5 -183t-140.5 -59zM1018 3h-236l7 128q-35 -39 -71 -65
t-63 -39.5t-68 -20t-65 -7.5t-76 -1h-7.5h-7h-7.5q-151 0 -247.5 79.5t-96.5 221.5v4q0 154 109 234.5t301 80.5q76 0 139 -13t159 -44v61q0 113 -69.5 171.5t-196.5 58.5q-144 0 -282 -49l-58 176q182 74 385 74q233 0 347 -112q111 -111 109 -324zM792 444
q-118 52 -229 52q-109 0 -177 -46t-68 -135v-4q0 -78 57 -120.5t143 -42.5q120 0 197 60t77 161v75z" />
    <glyph glyph-name="adieresis" unicode="&#xe4;" horiz-adv-x="1103" 
d="M348 1263q-63 0 -99 32t-36 82t35.5 82.5t97.5 32.5q65 0 100.5 -32.5t35.5 -82.5t-35.5 -82t-98.5 -32zM809 1263q-63 0 -99 32t-36 82t35.5 82.5t97.5 32.5q65 0 100.5 -32.5t35.5 -82.5t-35.5 -82t-98.5 -32zM1018 3h-236l7 128q-35 -39 -71 -65t-63 -39.5t-68 -20
t-65 -7.5t-76 -1h-7.5h-7h-7.5q-151 0 -247.5 79.5t-96.5 221.5v4q0 154 109 234.5t301 80.5q76 0 139 -13t159 -44v61q0 113 -69.5 171.5t-196.5 58.5q-144 0 -282 -49l-58 176q182 74 385 74q233 0 347 -112q111 -111 109 -324zM792 444q-118 52 -229 52q-109 0 -177 -46
t-68 -135v-4q0 -78 57 -120.5t143 -42.5q120 0 197 60t77 161v75z" />
    <glyph glyph-name="aring" unicode="&#xe5;" horiz-adv-x="1103" 
d="M573 1259q-93 0 -163 64.5t-70 150.5v4q0 86 70 151t163 65q94 0 163.5 -65t69.5 -151v-4q0 -86 -69.5 -150.5t-163.5 -64.5zM740 1478q0 66 -48.5 113t-118.5 47q-69 0 -117.5 -47t-48.5 -113v-4q0 -66 48.5 -113t117.5 -47q70 0 118.5 47t48.5 113v4zM1018 3h-236
l7 128q-35 -39 -71 -65t-63 -39.5t-68 -20t-65 -7.5t-76 -1h-7.5h-7h-7.5q-151 0 -247.5 79.5t-96.5 221.5v4q0 154 109 234.5t301 80.5q76 0 139 -13t159 -44v61q0 113 -69.5 171.5t-196.5 58.5q-144 0 -282 -49l-58 176q182 74 385 74q233 0 347 -112q111 -111 109 -324z
M792 444q-118 52 -229 52q-109 0 -177 -46t-68 -135v-4q0 -78 57 -120.5t143 -42.5q120 0 197 60t77 161v75z" />
    <glyph glyph-name="ae" unicode="&#xe6;" horiz-adv-x="1941" 
d="M1859 466h-799q60 -289 315 -289q81 0 145 25.5t131 82.5l141 -128q-158 -182 -421 -182q-247 0 -429 185q-118 -88 -230.5 -134t-234.5 -46q-180 0 -288.5 87t-108.5 236v4q0 166 113.5 252t313.5 86q80 0 146 -13t162 -46v62q0 119 -71.5 181t-202.5 62
q-148 0 -295 -53l-62 192q96 39 189 59.5t214 20.5q134 0 224.5 -39t159.5 -124q162 171 377 171q101 0 185.5 -31.5t144.5 -87t101.5 -131t61.5 -163t20 -184.5q0 -36 -2 -55zM1339 917q-115 0 -186 -80t-96 -228h557q-19 146 -89 227t-186 81zM815 461q-120 50 -232 50
q-113 0 -183 -48.5t-70 -142.5v-4q0 -79 60 -123t146 -44q164 0 328 131q-39 94 -49 181z" />
    <glyph glyph-name="ccedilla" unicode="&#xe7;" horiz-adv-x="1168" 
d="M688 -10l-137 -335l-211 87l181 260q-208 59 -324.5 206.5t-116.5 340.5v5q0 115 43.5 218.5t119 179.5t184.5 121t233 45q142 0 242 -40.5t180 -120.5l-160 -169q-60 56 -121 84t-144 28q-136 0 -224.5 -100.5t-88.5 -241.5v-4q0 -147 90 -247t237 -100q78 0 141 28
t125 82l151 -150q-79 -79 -170.5 -123t-229.5 -54z" />
    <glyph glyph-name="egrave" unicode="&#xe8;" horiz-adv-x="1140" 
d="M556 1266l-235 215l217 92l201 -307h-183zM1060 416h-738q10 -72 31 -115t60 -71q73 -53 168 -53q145 0 262 75l132 -129q-114 -123 -394 -123q-222 0 -361 137q-140 135 -140 352t140 352q139 136 361 136q219 0 349 -135q130 -136 130 -353v-73zM748 747
q-71 53 -167 53q-97 0 -168 -53q-40 -29 -58 -72.5t-18 -112.5h488q0 129 -77 185z" />
    <glyph glyph-name="eacute" unicode="&#xe9;" horiz-adv-x="1140" 
d="M701 1266h-184l201 307l217 -92zM1060 416h-738q10 -72 31 -115t60 -71q73 -53 168 -53q145 0 262 75l132 -129q-114 -123 -394 -123q-222 0 -361 137q-140 135 -140 352t140 352q139 136 361 136q219 0 349 -135q130 -136 130 -353v-73zM748 747q-71 53 -167 53
q-97 0 -168 -53q-40 -29 -58 -72.5t-18 -112.5h488q0 129 -77 185z" />
    <glyph glyph-name="ecircumflex" unicode="&#xea;" horiz-adv-x="1140" 
d="M772 1267l-183 150l-184 -150h-174l218 273h284l218 -273h-179zM1060 416h-738q10 -71 31 -114t60 -71q71 -53 168 -53q144 0 262 74l132 -129q-114 -123 -394 -123q-222 0 -361 137q-140 135 -140 352q0 216 140 353q139 136 361 136q219 0 349 -136t130 -353v-73z
M748 748q-73 53 -167 53q-95 0 -168 -53q-40 -29 -58 -72.5t-18 -113.5h488q0 130 -77 186z" />
    <glyph glyph-name="edieresis" unicode="&#xeb;" horiz-adv-x="1140" 
d="M377 1260q-63 0 -99 32t-36 82t35.5 82.5t97.5 32.5q65 0 100.5 -32.5t35.5 -82.5t-35.5 -82t-98.5 -32zM838 1260q-63 0 -99 32t-36 82t35.5 82.5t97.5 32.5q65 0 100.5 -32.5t35.5 -82.5t-35.5 -82t-98.5 -32zM1060 416h-738q10 -71 31 -114t60 -71q71 -53 168 -53
q144 0 262 74l132 -129q-114 -123 -394 -123q-222 0 -361 137q-140 135 -140 353q0 216 140 353t361 137q218 0 349 -136q130 -138 130 -354v-74zM748 749q-73 53 -167 53q-95 0 -168 -53q-40 -29 -58 -72.5t-18 -113.5h488q0 130 -77 186z" />
    <glyph glyph-name="igrave" unicode="&#xec;" horiz-adv-x="630" 
d="M330 1266l-250 215l232 93l214 -308h-196zM311 0v984h239v-984h-239z" />
    <glyph glyph-name="iacute" unicode="&#xed;" horiz-adv-x="626" 
d="M298 1266h-194l212 308l230 -93zM80 0v984h239v-984h-239z" />
    <glyph glyph-name="icircumflex" unicode="&#xee;" horiz-adv-x="893" 
d="M630 1267l-186 150l-186 -150h-178l222 273h288l223 -273h-183zM329 0v984h239v-984h-239z" />
    <glyph glyph-name="idieresis" unicode="&#xef;" horiz-adv-x="890" 
d="M215 1264q-63 0 -99 32t-36 82t35.5 82.5t97.5 32.5q65 0 100.5 -32.5t35.5 -82.5t-35.5 -82t-98.5 -32zM676 1264q-63 0 -99 32t-36 82t35.5 82.5t97.5 32.5q65 0 100.5 -32.5t35.5 -82.5t-35.5 -82t-98.5 -32zM336 0v984h239v-984h-239z" />
    <glyph glyph-name="eth" unicode="&#xf0;" horiz-adv-x="1311" 
d="M647 -25q-245 0 -406 152.5t-161 375.5v4q0 208 130 338t333 130q75 0 148 -24.5t227 -105.5l-287 377l-246 -100l-82 108l248 98l-125 166h291l55 -77l216 88l81 -109l-220 -87l198 -277q99 -139 141.5 -254t42.5 -245v-5q0 -113 -39.5 -213t-112.5 -175.5t-185 -120
t-247 -44.5zM974 501q0 130 -88.5 217.5t-230.5 87.5t-230 -85.5t-88 -219.5v-5q0 -131 90 -220t231 -89q144 0 230 88.5t86 220.5v5z" />
    <glyph glyph-name="ntilde" unicode="&#xf1;" 
d="M738 1267q-68 0 -175 39q-45 18 -79 29q-45 15 -74 15q-54 0 -85 -24.5t-56 -73.5l-122 37q40 126 92.5 184t139.5 58q68 0 175 -39q50 -20 78 -29q47 -15 76 -15q53 0 84 24.5t57 73.5l122 -37q-38 -125 -92 -183.5t-141 -58.5zM990 0h-237v541q0 117 -63 183t-183 69
q-114 -7 -190 -155v-638h-237l3 977l234 2v-132q85 74 150 102.5t137 28.5q190 0 287 -109q99 -109 99 -255v-614z" />
    <glyph glyph-name="ograve" unicode="&#xf2;" horiz-adv-x="1180" 
d="M559 1266l-234 215l216 92l201 -307h-183zM954 133q-145 -143 -364 -143t-364 143q-146 143 -146 356q0 215 146 356q145 143 364 143t364 -143q146 -141 146 -356t-146 -356zM808 707q-84 90 -220 90q-134 0 -218 -90q-84 -89 -84 -219t84 -219q83 -89 219 -89t219 89
q84 89 84 219t-84 219z" />
    <glyph glyph-name="oacute" unicode="&#xf3;" horiz-adv-x="1180" 
d="M712 1266h-183l201 307l216 -92zM954 133q-145 -143 -364 -143t-364 143q-146 143 -146 356q0 215 146 356q145 143 364 143t364 -143q146 -141 146 -356t-146 -356zM808 707q-84 90 -220 90q-134 0 -218 -90q-84 -89 -84 -219t84 -219q83 -89 219 -89t219 89
q84 89 84 219t-84 219z" />
    <glyph glyph-name="ocircumflex" unicode="&#xf4;" horiz-adv-x="1180" 
d="M779 1267l-183 150l-183 -150h-174l218 273h283l218 -273h-179zM954 133q-145 -143 -364 -143t-364 143q-146 143 -146 356q0 214 146 357q145 143 364 143t364 -143q146 -143 146 -357q0 -213 -146 -356zM808 708q-84 90 -220 90q-134 0 -218 -90q-84 -88 -84 -220
q0 -130 84 -219q83 -89 219 -89t219 89q84 89 84 219q0 132 -84 220z" />
    <glyph glyph-name="otilde" unicode="&#xf5;" horiz-adv-x="1180" 
d="M777 1267q-69 0 -174 39q-62 24 -78 29q-42 15 -74 15q-53 0 -84 -24.5t-57 -73.5l-120 37q39 125 91.5 183.5t138.5 58.5q68 0 173 -39q50 -20 78 -29q47 -15 75 -15q53 0 84 24.5t56 73.5l122 -37q-38 -124 -91.5 -183t-139.5 -59zM954 133q-145 -143 -364 -143
t-364 143q-146 143 -146 356q0 214 146 357q145 143 364 143t364 -143q146 -143 146 -357q0 -213 -146 -356zM808 708q-84 90 -220 90q-134 0 -218 -90q-84 -88 -84 -220q0 -130 84 -219q83 -89 219 -89t219 89q84 89 84 219q0 132 -84 220z" />
    <glyph glyph-name="odieresis" unicode="&#xf6;" horiz-adv-x="1180" 
d="M369 1264q-63 0 -99 32t-36 82t35.5 82.5t97.5 32.5q65 0 100.5 -32.5t35.5 -82.5t-35.5 -82t-98.5 -32zM830 1264q-63 0 -99 32t-36 82t35.5 82.5t97.5 32.5q65 0 100.5 -32.5t35.5 -82.5t-35.5 -82t-98.5 -32zM954 133q-145 -143 -364 -143t-364 143q-146 144 -146 357
q0 214 146 357q145 143 364 143t364 -143q146 -143 146 -357t-146 -357zM808 709q-84 90 -220 90q-134 0 -218 -90q-84 -89 -84 -220q0 -130 84 -220q83 -89 219 -89t219 89q84 90 84 220q0 131 -84 220z" />
    <glyph glyph-name="divide" unicode="&#xf7;" horiz-adv-x="1108" 
d="M550 964q-61 0 -95 32.5t-34 84.5t34 85.5t93 33.5q62 0 96 -33.5t34 -85.5t-33.5 -84.5t-94.5 -32.5zM80 625v185h948v-185h-948zM550 219q-61 0 -95 33t-34 85t34 85t93 33q62 0 96 -33t34 -85t-34 -85t-94 -33z" />
    <glyph glyph-name="oslash" unicode="&#xf8;" horiz-adv-x="1346" 
d="M1252 1096l-138 -159q152 -171 152 -386v-4q0 -156 -76.5 -287t-213.5 -208t-305 -77q-160 0 -316 83l-65 -67h-205l145 167q-150 177 -150 384v5q0 116 45 221.5t123.5 182t189.5 122t237 45.5q164 0 314 -83l68 72h205zM671 906q-156 0 -247.5 -103t-91.5 -252v-4
q0 -86 58 -207l454 520q-100 46 -173 46zM1014 547q0 86 -58 207l-456 -525q106 -41 175 -41q156 0 247.5 103t91.5 251v5z" />
    <glyph glyph-name="ugrave" unicode="&#xf9;" 
d="M508 1266l-236 215l218 92l202 -307h-184zM753 0v132q-85 -74 -150 -102.5t-137 -28.5q-190 0 -287 109q-99 111 -99 255v614h237v-541q0 -117 63 -182.5t183 -69.5q113 7 190 144v649h237v-979h-237z" />
    <glyph glyph-name="uacute" unicode="&#xfa;" 
d="M613 1266h-184l202 307l218 -92zM753 0v132q-85 -74 -150 -102.5t-137 -28.5q-190 0 -287 109q-99 111 -99 255v614h237v-541q0 -117 63 -182.5t183 -69.5q113 7 190 144v649h237v-979h-237z" />
    <glyph glyph-name="ucircumflex" unicode="&#xfb;" 
d="M737 1267l-184 150l-184 -150h-176l220 273h285l219 -273h-180zM753 0v132q-85 -74 -150 -102.5t-137 -28.5q-190 0 -287 109q-99 111 -99 255v614h237v-541q0 -117 63 -182.5t183 -69.5q112 7 190 144v649h237v-979h-237z" />
    <glyph glyph-name="udieresis" unicode="&#xfc;" 
d="M338 1264q-63 0 -99 32t-36 82t35.5 82.5t97.5 32.5q65 0 100.5 -32.5t35.5 -82.5t-35.5 -82t-98.5 -32zM799 1264q-63 0 -99 32t-36 82t35.5 82.5t97.5 32.5q65 0 100.5 -32.5t35.5 -82.5t-35.5 -82t-98.5 -32zM753 0v132q-85 -74 -150 -102.5t-137 -28.5
q-190 0 -287 109q-99 111 -99 256v615h237v-542q0 -117 63 -183t183 -70q113 7 190 145v650h237v-981h-237z" />
    <glyph glyph-name="yacute" unicode="&#xfd;" horiz-adv-x="1272" 
d="M720 1268h-181l199 305l215 -91zM762 -36q-71 -169 -145.5 -233.5t-205.5 -64.5q-135 0 -252 61l84 177q69 -33 127 -33q54 0 86.5 22.5t61.5 81.5l-438 1018h279l280 -804l280 804h273z" />
    <glyph glyph-name="thorn" unicode="&#xfe;" horiz-adv-x="1313" 
d="M738 -10q-117 0 -203.5 51.5t-188.5 170.5v-540h-266v1823h266v-637q101 136 187.5 192t204.5 56q96 0 184 -36.5t158 -104.5t111.5 -175.5t41.5 -239.5v-4q0 -132 -41 -239.5t-110.5 -175.5t-158 -104.5t-185.5 -36.5zM967 550q0 150 -91 247t-222 97q-132 0 -222 -97
t-90 -247v-4q0 -150 90 -247t222 -97t222.5 96t90.5 248v4z" />
    <glyph glyph-name="ydieresis" unicode="&#xff;" horiz-adv-x="1272" 
d="M403 1264q-63 0 -99 32t-36 82t35.5 82.5t97.5 32.5q65 0 100.5 -32.5t35.5 -82.5t-35.5 -82t-98.5 -32zM864 1264q-63 0 -99 32t-36 82t35.5 82.5t97.5 32.5q65 0 100.5 -32.5t35.5 -82.5t-35.5 -82t-98.5 -32zM762 -35q-71 -169 -145.5 -234t-205.5 -65q-135 0 -252 61
l84 177q67 -32 127 -32q54 0 86.5 22t61.5 81l-438 1020h279l280 -805l280 805h273z" />
    <glyph glyph-name="circumflex" unicode="&#x2c6;" horiz-adv-x="1024" 
d="M697 1219l-187 174l-187 -174h-180l225 321h288l225 -321h-184z" />
    <glyph glyph-name="tilde" unicode="&#x2dc;" horiz-adv-x="1044" 
d="M703 483q-73 0 -176 45q-63 27 -79 33q-47 17 -75 17q-54 0 -85.5 -28.5t-57.5 -83.5l-123 42q41 146 94 213.5t141 67.5q70 0 175 -45q66 -28 79 -33q42 -17 76 -17q55 0 86 28t56 84l123 -42q-38 -144 -92.5 -212.5t-141.5 -68.5z" />
    <glyph glyph-name="uni037E" unicode="&#x37e;" horiz-adv-x="602" 
d="M253 768q-71 0 -110.5 32.5t-39.5 83.5t39 84t108 33q73 0 112.5 -33t39.5 -84t-39.5 -83.5t-109.5 -32.5zM198 -200l-25 39q44 22 76 62t59 110h-62q-70 0 -109.5 32.5t-39.5 83.5t39 84t108 33q73 0 112.5 -33t39.5 -84v-8q0 -220 -198 -319z" />
    <glyph glyph-name="endash" unicode="&#x2013;" horiz-adv-x="1108" 
d="M56 399v160h996v-160h-996z" />
    <glyph glyph-name="emdash" unicode="&#x2014;" horiz-adv-x="2048" 
d="M0 399v160h2048v-160h-2048z" />
    <glyph glyph-name="quoteleft" unicode="&#x2018;" horiz-adv-x="625" 
d="M381 1100q-72 0 -112 35.5t-40 91.5v8q0 238 198 346l27 -44q-45 -24 -77 -66.5t-60 -117.5h62q71 0 110.5 -35.5t39.5 -90.5t-39.5 -91t-108.5 -36z" />
    <glyph glyph-name="quoteright" unicode="&#x2019;" horiz-adv-x="625" 
d="M194 1110l-27 44q45 24 77 66.5t60 117.5h-62q-71 0 -110.5 35.5t-39.5 90.5t39.5 91t108.5 36q72 0 112 -35.5t40 -91.5v-8q0 -238 -198 -346z" />
    <glyph glyph-name="quotesinglbase" unicode="&#x201a;" horiz-adv-x="625" 
d="M314 -200l-27 44q45 24 77 66.5t60 117.5h-62q-71 0 -110.5 35.5t-39.5 90.5t39.5 91t108.5 36q72 0 112 -35.5t40 -91.5v-8q0 -238 -198 -346z" />
    <glyph glyph-name="quotedblleft" unicode="&#x201c;" horiz-adv-x="985" 
d="M364 1100q-64 0 -99.5 35.5t-35.5 91.5v8q0 238 175 345l23 -44q-40 -23 -68.5 -65.5t-53.5 -117.5h56q62 0 97.5 -35t35.5 -91q0 -55 -35 -91t-95 -36zM770 1100q-64 0 -99.5 35.5t-35.5 91.5v8q0 238 175 345l23 -44q-40 -23 -68.5 -65.5t-53.5 -117.5h57
q62 0 97 -35.5t35 -90.5t-35 -91t-95 -36z" />
    <glyph glyph-name="quotedblright" unicode="&#x201d;" horiz-adv-x="985" 
d="M179 1111l-23 44q40 23 68.5 65.5t53.5 117.5h-57q-61 0 -96.5 35t-35.5 91q0 55 35 91t95 36q64 0 99.5 -35.5t35.5 -91.5v-8q0 -238 -175 -345zM585 1111l-23 44q40 23 68.5 65.5t53.5 117.5h-56q-62 0 -97.5 35t-35.5 91q0 55 35 91t95 36q64 0 99.5 -35.5t35.5 -91.5
v-8q0 -238 -175 -345z" />
    <glyph glyph-name="quotedblbase" unicode="&#x201e;" horiz-adv-x="985" 
d="M290 -220l-23 44q40 23 68.5 65.5t53.5 117.5h-57q-62 0 -97 35.5t-35 90.5t35 91t95 36q64 0 99.5 -35.5t35.5 -91.5v-8q0 -238 -175 -345zM696 -220l-23 44q40 23 68.5 65.5t53.5 117.5h-56q-62 0 -97.5 35t-35.5 91q0 55 35 91t95 36q64 0 99.5 -35.5t35.5 -91.5v-8
q0 -238 -175 -345z" />
    <glyph glyph-name="ellipsis" unicode="&#x2026;" horiz-adv-x="2048" 
d="M325 0q-58 0 -91.5 38.5t-33.5 101.5q0 62 33.5 101.5t89.5 39.5q59 0 92.5 -39t33.5 -102t-33 -101.5t-91 -38.5zM1049 0q-58 0 -91.5 38.5t-33.5 101.5q0 62 33.5 101.5t89.5 39.5q59 0 93 -39t34 -102q0 -62 -33.5 -101t-91.5 -39zM1776 0q-58 0 -91 38.5t-33 101.5
t33 102t89 39q60 0 93.5 -39t33.5 -102t-33.5 -101.5t-91.5 -38.5z" />
    <glyph glyph-name="guilsinglleft" unicode="&#x2039;" horiz-adv-x="676" 
d="M568 677l-212 -191l212 -183v-180l-417 363l417 375v-184z" />
    <glyph glyph-name="guilsinglright" unicode="&#x203a;" horiz-adv-x="676" 
d="M98 671v184l417 -375l-417 -363v180l212 183z" />
    <glyph glyph-name="fraction" unicode="&#x2044;" horiz-adv-x="962" 
d="M268 -24h-188l616 1503h186z" />
    <glyph glyph-name="Euro" unicode="&#x20ac;" horiz-adv-x="1500" 
d="M856 0q-317 0 -535 216q-148 147 -201 368h-121v84h108q-3 50 -3 85q0 32 4 80h-109v84h121q53 220 201 368q215 215 535 215q306 0 531 -180l-169 -184q-161 115 -362 114q-224 0 -362 -140q-65 -67 -118 -193h607v-84h-623q-4 -60 -4 -78q0 -23 4 -87h623v-84h-606
q51 -130 119 -196q138 -137 362 -137q204 0 361 113l168 -184q-223 -180 -531 -180z" />
    <glyph glyph-name="trademark" unicode="&#x2122;" horiz-adv-x="1853" 
d="M740 1434v-113h-263v-643h-128v643h-283v113h674zM1589 1434l131 -756h-124l-100 564l-281 -564h-28l-281 564l-102 -564h-124l135 756h112l273 -556l274 556h115z" />
    <glyph glyph-name="minus" unicode="&#x2212;" horiz-adv-x="1108" 
d="M80 637v160h948v-160h-948z" />
    <glyph glyph-name="uniF8FF" unicode="&#xf8ff;" horiz-adv-x="2002" 
d="M131 -166v1869h1740v-1869h-1740zM392 278h198v344h687v183h-687v491h687v176h-890v-1186q0 -2 1 -3q0 -5 4 -5zM724 278h888v1194h-203v-334h-685v-190h685v-485h-685v-185zM1108 47q11 0 29 4q8 6 12 6q9 0 9 9q0 1 1.5 4.5t1.5 5.5t0.5 5.5t0.5 5.5q0 10 -1 14l-3 8
l-9 9q-5 5 -8 5l-10 2q-13 3 -14 4q-7 5 -13 5q-5 0 -8 4q-3 6 -3 8q0 10 12 10q7 0 10 -1q2 -1 5.5 -2t5.5 -2q3 -2 5.5 -3t4 -1.5t2.5 -0.5q8 -3 10 -4l14 27q-4 3 -26 11q-15 5 -28 5q-11 0 -26 -6q-1 -1 -5.5 -2.5t-5.5 -2.5q-6 -6 -8 -9q-6 -9 -6 -23q0 -4 2 -10
q1 -5 4 -9t7 -7l7 -5q5 -3 11 -3q2 0 6.5 -2t7.5 -2l6 -1q3 -1 7 -5l7 -5q4 -3 4 -6q0 -9 -5 -10q-10 -2 -13 -2q-9 0 -24 6q-12 5 -23 14l-13 -26q14 -12 29 -16q1 0 6 -1.5t9 -2.5q10 -2 16 -2zM570 46q33 0 51 18t21 51q2 20 -11 36q-9 12 -10 13q-10 10 -13 12
q-12 8 -38 8q-17 0 -36 -8q-19 -13 -26 -25q-10 -17 -10 -36q0 -21 10 -35q9 -20 25 -27q15 -7 37 -7zM1420 46q18 0 30 7q16 10 24 19l-20 19q-4 -4 -17 -10q-5 -4 -17 -4q-11 0 -17 5l-7 6l-7 9q-4 5 -4 20q0 13 4 20l14 12q6 5 17 5q12 0 17 -5q13 -4 17 -12l18 23
q-1 2 -10 11q-7 7 -11 7q-7 0 -15 3q-9 3 -16 3q-30 0 -50 -18q-20 -19 -20 -51q0 -23 8 -35q11 -17 27 -27q13 -7 35 -7zM392 50h35v47h59v26h-59v31h63v26h-98v-130zM660 50h33v78l60 -78h31v130h-33v-77l-60 77h-31v-130zM838 50h34v104h39v26h-115v-26h42v-104zM897 50
h35l10 22h57l9 -22h38l-56 130h-36zM1209 50h34v104h41v26h-115v-26h40v-104zM1298 50h33v130h-33v-130zM1472 50h38l8 22h61l6 -22h37l-56 130h-36zM571 75q-17 0 -27 12q-10 11 -10 28q0 10 5 20l6 9l7 5q9 5 19 5q9 0 19 -5q8 -4 12 -14q0 -1 2 -4.5t2 -5.5v-20
q0 -5 -4 -10q-2 -2 -3.5 -4t-2.5 -3.5l-2 -3t-2 -2t-2 -1.5q-14 -6 -19 -6zM952 98l20 48l16 -48h-36zM1528 98l19 48l17 -48h-36zM706 -341q-24 0 -33 22q-4 10 -4 20q0 15 3 22q1 3 10 12q5 5 13 8q6 2 14 2q30 0 36 -29q3 -15 0 -27t-14 -22q-9 -8 -25 -8zM1102 -340
q-13 0 -17 4q-10 3 -13 12l-2 6l-1 2q-1 2 -1 3l7 2q4 1 8 1l2 -3q9 -13 17 -13q3 0 9 3t6 7q0 5 -3 8q-2 2 -17 6q-18 4 -20 7q-8 13 -5 22q5 13 19 16q0 2 13 2q14 -2 20 -9q7 -3 7 -15v-3h-16v3q-5 11 -13 11q-1 0 -2 -1h-3q-10 -6 -9 -11l17 -6q16 -6 23 -13q6 -6 7 -14
q0 -5 -9 -18q-4 -6 -11 -8q-4 -1 -13 -1zM1352 -340q-24 0 -38 27q-3 7 -2 15l2 14q6 21 26 27q2 0 4 1t6 1q15 0 25 -10q5 -5 6 -8l2 -6l-8 -3l-6 -2q-3 0 -4 4q-4 11 -15 11q-9 0 -15 -8q-4 -5 -6 -16q0 -1 0.5 -5t0.5 -7q0 -5 3 -10q4 -11 16 -11q11 0 16 13l2 5l8 -2
q8 -3 8 -4l-2 -6q-11 -20 -29 -20zM1611 -340q-12 0 -20 6q-7 5 -12 14q-12 23 0 45q1 3 5 6.5t5 4.5q4 5 12 7q2 2 13 2q1 0 13 -3q2 0 10 -8q5 -5 7 -9l1 -4q-1 -1 -9 -3l-8 -2q-1 1 -2 4q-4 9 -14 9q-12 0 -16 -9q-4 -10 -4 -19q0 -11 4 -19q5 -8 16 -8t16 13q0 3 2 3v2
l9 -3l5 -2v-3q0 -2 -2 -6l-3 -7q-11 -11 -28 -11zM166 -340l-9 2l-19 79q0 2 8 2h9l11 -53q2 1 2 5q0 9 5 19q7 15 7 24l2 5h18l8 -27l6 -26q2 0 3 9l3 17q2 4 4 12.5t3 12.5q0 2 7 2q10 0 10 -2q-4 -10 -8 -32q-1 -5 -3.5 -13t-3.5 -13l-4 -18v-5h-18v5l-4 10l-6 20l-6 25
l-8 -24l-8 -36h-9zM289 -340q-2 2 -4 2l-3 12l-6 28l-6 27l-3 12q0 2 8 2h8q1 0 1 -2q1 -2 1 -7q4 -9 4 -18l6 -26l14 53h20q2 0 2 -2l7 -27l5 -27l13 54q0 2 7 2q9 0 9 -2q-1 -3 -1 -10l-3 -15q-2 -10 -5 -15l-11 -41h-7l-9 2l-9 30q-1 2 -1 6t-1 5q-1 2 -4 9q0 6 -1 9
q-2 -6 -2 -9q-3 -6 -3 -9q0 -8 -3 -11l-8 -32h-15zM423 -340q-8 0 -9 4l-2 12q-1 6 -7 27q-2 6 -4 16t-2 12l-3 12h16l5 -27l8 -26l3 9l11 44h19l8 -27q3 -24 8 -27q0 4 1 7q-1 2 3 20l6 27h8q9 0 9 -2q-2 -6 -2 -10q0 -3 -2 -15q-1 -5 -5 -15l-11 -39l-7 -2h-10l-8 32
l-5 21l-3 7l-15 -58zM581 -338v79q0 2 4 2h52v-14h-40v-19h33v-14h-33v-16l-1 -18h-15zM782 -340v83h16l32 -53v53h15v-81l-7 -2h-8l-32 54v-54h-16zM903 -340v69h-23v14h65v-14h-25v-69h-17zM963 -340q0 2 -2 2l3 9l9 22q2 5 6 13.5t5 12.5q1 2 3.5 10.5t4.5 11.5q0 2 7 2
h9l33 -81q-2 0 -2 -2h-5l-11 2l-6 19h-32l-7 -19l-8 -2h-7zM1189 -340v69h-25v14h65v-14h-23v-69h-17zM1262 -340v83h15v-83h-15zM1414 -340l-2 2q2 3 4 9l7 22q5 14 10 26q2 4 5 11.5t4 10.5q0 2 9 2h9l32 -81q-2 0 -2 -2h-7l-9 2l-7 19h-31l-7 -19l-9 -2h-6zM1717 -340
q-21 0 -30 12q-10 13 -10 29q0 7 8 25q6 14 19 17q17 0 37 -6q14 -4 14 -34q0 -20 -8 -31q-9 -12 -30 -12zM1791 -340v83h25l6 -27l5 -18q2 -6 2 -8l7 24q8 24 8 27v2h26v-83h-17v63l-6 -28l-6 -21l-2 -10v-4h-10l-7 2l-6 30l-10 29v-59l-8 -2h-7zM708 -326q20 0 20 16v24
q0 3 -10 13q-4 4 -9 4q-10 0 -18 -8q-2 -2 -4 -8q-1 -3 -1 -14q0 -12 7 -20q5 -7 15 -7zM1717 -326q7 0 10 4q11 5 11 23q0 21 -11 26q-2 1 -4 3q-1 1 -5 1q-15 0 -18 -9t-3 -21q0 -16 2 -19q5 -8 18 -8zM1440 -305h22l-5 14q-3 6 -3 7q0 2 -1 3t-1 2l-4 -6zM990 -305h20
q-2 5 -4 14q-3 6 -3 7q-1 1 -1 3q-1 1 -1 2l-5 -6zM526 -338v16h16v-16h-16zM1524 -338v16h15v-8l-1 -8h-14z" />
    <glyph glyph-name="NULL" horiz-adv-x="0" 
 />
    <glyph glyph-name="_FSHallmark" horiz-adv-x="1828" 
d="M114 1233v190h1604v-190h-1604zM1372 335q-75 0 -132 18q-98 25 -161 98.5t-63 173.5l186 -4q0 -8 12 -32q3 -25 26.5 -49t47.5 -31q33 -20 92 -20q60 0 104 22q34 20 34 52q0 59 -152 88q-150 43 -234 88q-96 48 -96 158q0 86 55 137.5t149 86.5q2 0 52 7t80 7
q75 0 180 -38q68 -24 109 -85.5t41 -134.5h-192q0 42 -50 78q-6 2 -21 9t-25 9q-7 1 -22.5 5.5t-23.5 4.5q-44 0 -90 -28q-38 -23 -38 -58q0 -60 36 -78q2 -1 20 -9t32.5 -12.5t29.5 -6.5l72 -20l58 -14q7 -1 27 -6.5t31 -5.5q37 -9 44 -14l40 -18q38 -24 62 -52
q22 -51 24 -88q3 -41 -20 -94q-80 -144 -324 -144zM114 335v798h674v-180h-464v-182h388v-178h-388v-258h-210zM866 339q-32 0 -62 30q-34 28 -34 64q0 39 30 66q26 26 66 26q41 0 78 -28q32 -29 32 -64q0 -38 -32 -70q-36 -24 -78 -24zM110 47v190h1606v-190h-1606z" />
    <glyph glyph-name="_Fontastica" horiz-adv-x="1378" 
d="M86 246q-3 0 -4.5 2t-1.5 4v2v1178h884v-174h-682v-490h682v-182h-682v-340h-196zM414 246v184h682v482h-682v188h682v332h202v-1186h-884zM272 52q-16 0 -36 8q-15 5 -25.5 23t-10.5 35q0 28 21.5 47t50.5 19q22 0 33.5 -7.5t24.5 -26.5q10 -13 10 -32q0 -28 -20 -47
t-48 -19zM790 52q-35 0 -60 20l14 26q20 -20 46 -20q16 0 16 12q0 1 -2 3.5t-2 4.5l-6 4q-6 0 -14 4q-5 2 -13 3t-11 3q-20 13 -20 34q0 38 52 38q24 0 52 -14l-14 -28q-16 16 -50 16q-2 0 -2 -2l-2 -8q0 -1 1 -3t1 -3q0 -2 1.5 -3.5l2.5 -2.5h2q3 0 7.5 -2t6.5 -2
q15 0 30.5 -12.5t15.5 -27.5q0 -19 -16 -29.5t-36 -10.5zM1088 52q-21 0 -34 8q-15 7 -24.5 24t-9.5 34q0 15 10.5 34.5t23.5 23.5q20 8 34 8q15 0 30 -6q12 -6 22 -16l-20 -24q-3 5 -13.5 11.5t-16.5 6.5q-21 0 -30 -18q-4 -6 -4 -20q0 -26 16 -32q12 -6 18 -6q5 0 16.5 6
t13.5 10l20 -20q-18 -24 -52 -24zM98 54v128h96v-26h-62v-30h58v-26h-58v-46h-34zM356 54v128h30l58 -78v78h32v-128h-30l-58 76v-76h-32zM528 54v100h-38v28h108v-28h-36v-100h-34zM586 54l54 128h34l54 -128h-36l-8 24h-56l-8 -24h-34zM886 54v100h-38v28h108v-28h-38
v-100h-32zM970 54v128h34v-128h-34zM1140 54l56 128h34l54 -128h-36l-10 24h-54l-10 -24h-34zM272 78q14 0 24 12.5t10 27.5q0 13 -10.5 25.5t-23.5 12.5q-11 0 -20 -6q-16 -8 -16 -32q0 -17 9.5 -28.5t26.5 -11.5zM638 102h36l-18 46zM1194 102h34l-18 46z" />
    <glyph glyph-name="_www.fontastica.com" horiz-adv-x="4026" 
d="M124 568l-4 2v418h316v-62h-244v-174h244v-64h-244v-120h-68zM238 568v64h244v172h-244v66h244v118h72v-420h-316zM2560 602q-41 0 -86.5 15.5t-75.5 40.5l36 72q22 -19 61 -36.5t65 -17.5q20 0 32 8q14 7 14 22t-10 20q-18 12 -58 24q-55 17 -62 20q-29 12 -40 30
q-14 20 -14 56q0 53 40.5 80.5t97.5 27.5q74 0 140 -40l-34 -72q-70 36 -114 36q-36 0 -36 -24q0 -28 66 -44q41 -9 62 -20q31 -18 40 -32q16 -22 16 -58q0 -54 -41 -81t-99 -27zM1146 600q-79 0 -133.5 51.5t-54.5 130.5t54 129.5t134 50.5t134 -50.5t54 -129.5
t-53.5 -130.5t-134.5 -51.5zM3372 600q-77 0 -129.5 52.5t-52.5 129.5q0 78 53.5 129t132.5 51q86 0 140 -60l-52 -64q-34 46 -86 46q-43 0 -69.5 -28.5t-26.5 -71.5q0 -33 12 -52q31 -50 84 -50q46 0 86 40l54 -56q-66 -66 -146 -66zM678 608v348h260v-72h-170v-78h156v-74
h-156v-124h-90zM1380 608v348h80l160 -210l-2 210h86v-348h-80l-158 208v-208h-86zM1846 608v274h-104v74h300v-74h-106v-274h-90zM2004 608l150 348h94l146 -348h-96l-24 60h-152l-24 -60h-94zM2820 608v274h-104v74h300v-74h-104v-274h-92zM3054 608v348h90v-348h-90z
M3516 608l150 348h94l146 -348h-98l-22 60h-152l-24 -60h-94zM1148 678q40 0 67 31.5t27 72.5q0 15 -14 52q-19 50 -80 50q-43 0 -69.5 -29t-26.5 -73q0 -42 27 -73t69 -31zM2150 738h96l-46 126zM3662 738h96l-48 126z" />
    </font>
</defs>
</svg>
